<svg width="135.424469" height="45.201843" viewBox="0 0 135.424 45.2018" fill="none" xmlns="http://www.w3.org/2000/svg" xmlns:xlink="http://www.w3.org/1999/xlink">
	<desc>
			Created with Pixso.
	</desc>
	<defs/>
	<path id="Vector" d="M0.37 42.83C1.48 41.78 2.57 40.74 3.68 39.69C3.75 39.34 3.92 39.03 4.25 38.8C4.85 38.39 5.39 37.97 5.93 37.56L13.29 30.58C14.6 29.35 16.45 31.16 15.29 32.51C14.19 33.81 13.02 35.02 11.83 36.16C52.19 22.1 93.08 9.53 134.78 0.01C135.42 -0.13 135.7 0.83 135.05 0.99C91.59 12.31 48.51 25.06 6.47 40.9C6.08 41.27 5.68 41.65 5.29 42.02C8.94 41.66 12.59 41.3 16.26 40.96C18.05 40.8 18.06 43.56 16.3 43.73C11.34 44.25 6.38 44.71 1.41 45.19C0.2 45.31 -0.47 43.61 0.37 42.81L0.37 42.83Z" fill="#FFFFFF" fill-opacity="1.000000" fill-rule="nonzero"/>
</svg>
