<svg width="135.424469" height="45.201843" viewBox="0 0 135.424 45.2018" fill="none" xmlns="http://www.w3.org/2000/svg" xmlns:xlink="http://www.w3.org/1999/xlink">
	<desc>
			Created with Pixso.
	</desc>
	<defs/>
	<path id="Vector" d="M135.04 42.83C133.94 41.78 132.84 40.74 131.74 39.69C131.66 39.34 131.49 39.03 131.16 38.8C130.57 38.39 130.03 37.97 129.48 37.56L122.12 30.58C120.82 29.35 118.97 31.16 120.12 32.51C121.23 33.81 122.4 35.02 123.59 36.16C83.22 22.1 42.34 9.53 0.63 0.01C-0.01 -0.13 -0.28 0.83 0.36 0.99C43.83 12.31 86.9 25.06 128.95 40.9C129.33 41.27 129.74 41.65 130.12 42.02C126.47 41.66 122.82 41.3 119.16 40.96C117.36 40.8 117.35 43.56 119.11 43.73C124.07 44.25 129.03 44.71 134 45.19C135.22 45.31 135.89 43.61 135.04 42.81L135.04 42.83Z" fill="#FFFFFF" fill-opacity="1.000000" fill-rule="nonzero"/>
</svg>
