<svg width="53.224907" height="54.250153" viewBox="0 0 53.2249 54.2502" fill="none" xmlns="http://www.w3.org/2000/svg" xmlns:xlink="http://www.w3.org/1999/xlink">
	<desc>
			Created with Pixso.
	</desc>
	<defs/>
	<path id="Vector" d="M42.3 0.13L53.08 11.37L53.08 54.11L12.81 54.11L12.81 54.25L53.22 54.25L53.22 11.51L42.3 0.13Z" fill="#909090" fill-opacity="1.000000" fill-rule="nonzero"/>
	<path id="Vector" d="M42.17 0L12.67 0L12.67 54.11L53.08 54.11L53.08 11.37L42.17 0Z" fill="#F4F4F4" fill-opacity="1.000000" fill-rule="nonzero"/>
	<path id="Vector" d="M12.38 2.9L0 2.9L0 16.13L38.94 16.13L38.94 2.9L12.38 2.9Z" fill="#7A7B7C" fill-opacity="1.000000" fill-rule="nonzero"/>
	<path id="Vector" d="M39.15 15.9L0.25 15.9L0.25 2.67L39.15 2.67L39.15 15.9Z" fill="#DD2025" fill-opacity="1.000000" fill-rule="nonzero"/>
	<path id="Vector" d="M13.15 4.9L13.09 4.9L12.69 4.9L10.62 4.9L10.62 14.2L12.61 14.2L12.61 11.07L13.05 11.09C13.48 11.09 13.9 11.01 14.3 10.87C14.65 10.74 14.98 10.55 15.26 10.3C15.54 10.06 15.76 9.76 15.91 9.42C16.1 8.86 16.17 8.26 16.11 7.66C16.1 7.24 16.02 6.82 15.89 6.42C15.77 6.13 15.58 5.86 15.36 5.65C15.13 5.43 14.85 5.26 14.56 5.16C14.3 5.06 14.03 5 13.76 4.96C13.56 4.92 13.35 4.91 13.15 4.9L13.15 4.9ZM12.78 9.35L12.61 9.35L12.61 6.48L12.98 6.48C13.15 6.47 13.31 6.5 13.47 6.56C13.62 6.62 13.76 6.71 13.87 6.83C14.1 7.14 14.23 7.52 14.23 7.91C14.23 8.39 14.23 8.82 13.8 9.13C13.49 9.3 13.13 9.38 12.78 9.35Z" fill="#464648" fill-opacity="1.000000" fill-rule="nonzero"/>
	<path id="Vector" d="M19.89 4.88C19.68 4.88 19.47 4.9 19.32 4.9L18.86 4.91L17.35 4.91L17.35 14.21L19.13 14.21C19.8 14.23 20.48 14.12 21.12 13.87C21.63 13.67 22.08 13.34 22.43 12.92C22.78 12.5 23.02 12 23.16 11.47C23.31 10.87 23.38 10.25 23.38 9.63C23.42 8.9 23.36 8.17 23.21 7.45C23.07 6.92 22.8 6.43 22.43 6.03C22.15 5.7 21.79 5.44 21.4 5.25C21.06 5.1 20.7 4.98 20.33 4.91C20.19 4.88 20.04 4.87 19.89 4.88L19.89 4.88ZM19.54 12.5L19.35 12.5L19.35 6.57L19.37 6.57C19.77 6.52 20.17 6.59 20.53 6.77C20.8 6.98 21.01 7.25 21.16 7.55C21.32 7.87 21.42 8.21 21.44 8.57C21.45 8.99 21.44 9.34 21.44 9.63C21.44 9.96 21.42 10.3 21.37 10.63C21.31 10.96 21.2 11.29 21.05 11.59C20.87 11.88 20.63 12.12 20.34 12.29C20.1 12.45 19.82 12.52 19.54 12.5L19.54 12.5Z" fill="#464648" fill-opacity="1.000000" fill-rule="nonzero"/>
	<path id="Vector" d="M29.38 4.91L24.67 4.91L24.67 14.21L26.66 14.21L26.66 10.52L29.18 10.52L29.18 8.8L26.66 8.8L26.66 6.64L29.38 6.64L29.38 4.91L29.38 4.91Z" fill="#464648" fill-opacity="1.000000" fill-rule="nonzero"/>
	<path id="Vector" d="M37.81 35.36C37.81 35.36 43.99 34.24 43.99 36.35C43.99 38.46 40.16 37.61 37.81 35.36ZM33.24 35.53C32.26 35.74 31.31 36.06 30.39 36.47L31.16 34.73C31.94 32.98 32.74 30.61 32.74 30.61C33.67 32.16 34.74 33.63 35.96 34.97C35.04 35.11 34.14 35.29 33.24 35.53L33.24 35.53ZM30.8 22.93C30.8 21.09 31.39 20.59 31.86 20.59C32.32 20.59 32.84 20.81 32.86 22.41C32.71 24.02 32.37 25.6 31.86 27.13C31.15 25.84 30.79 24.4 30.8 22.94L30.8 22.93ZM21.79 43.31C19.9 42.17 25.77 38.68 26.83 38.57C26.82 38.57 23.78 44.49 21.79 43.31ZM45.79 36.6C45.77 36.41 45.6 34.27 41.78 34.36C40.19 34.33 38.6 34.44 37.03 34.69C35.51 33.16 34.19 31.43 33.13 29.55C33.8 27.61 34.21 25.59 34.34 23.54C34.28 21.22 33.72 19.88 31.94 19.9C30.16 19.92 29.9 21.48 30.13 23.8C30.36 25.36 30.8 26.89 31.42 28.33C31.42 28.33 30.6 30.9 29.51 33.45C28.42 36 27.68 37.33 27.68 37.33C25.78 37.95 24 38.86 22.4 40.05C20.8 41.53 20.15 42.67 20.99 43.81C21.72 44.8 24.25 45.02 26.52 42.05C27.73 40.52 28.83 38.9 29.81 37.22C29.81 37.22 33.27 36.27 34.35 36.02C35.42 35.76 36.72 35.55 36.72 35.55C36.72 35.55 39.88 38.73 42.92 38.61C45.97 38.5 45.82 36.79 45.8 36.61L45.79 36.6Z" fill="#DD2025" fill-opacity="1.000000" fill-rule="nonzero"/>
	<path id="Vector" d="M42.02 0.14L42.02 11.52L52.93 11.52L42.02 0.14Z" fill="#909090" fill-opacity="1.000000" fill-rule="nonzero"/>
	<path id="Vector" d="M42.17 0L42.17 11.37L53.08 11.37L42.17 0Z" fill="#F4F4F4" fill-opacity="1.000000" fill-rule="nonzero"/>
	<path id="Vector" d="M13 4.76L12.94 4.76L12.54 4.76L10.46 4.76L10.46 14.06L12.46 14.06L12.46 10.92L12.91 10.95C13.33 10.94 13.76 10.86 14.16 10.72C14.51 10.6 14.84 10.41 15.11 10.16C15.39 9.92 15.61 9.61 15.76 9.28C15.95 8.71 16.02 8.11 15.96 7.52C15.95 7.09 15.87 6.67 15.74 6.27C15.62 5.98 15.44 5.72 15.21 5.5C14.98 5.28 14.71 5.12 14.41 5.01C14.15 4.92 13.88 4.85 13.61 4.81C13.41 4.77 13.2 4.76 12.99 4.76L13 4.76ZM12.63 9.2L12.46 9.2L12.46 6.33L12.83 6.33C13 6.32 13.16 6.35 13.32 6.41C13.47 6.47 13.61 6.56 13.72 6.68C13.95 7 14.08 7.37 14.08 7.76C14.08 8.24 14.08 8.67 13.65 8.98C13.34 9.15 12.98 9.22 12.63 9.2L12.63 9.2Z" fill="#FFFFFF" fill-opacity="1.000000" fill-rule="nonzero"/>
	<path id="Vector" d="M19.74 4.73C19.53 4.73 19.32 4.75 19.17 4.75L18.71 4.76L17.2 4.76L17.2 14.06L18.98 14.06C19.66 14.08 20.34 13.97 20.97 13.72C21.48 13.52 21.94 13.19 22.29 12.77C22.63 12.35 22.88 11.85 23.01 11.32C23.16 10.72 23.24 10.1 23.23 9.48C23.27 8.75 23.21 8.02 23.06 7.3C22.92 6.77 22.66 6.28 22.29 5.88C22 5.55 21.65 5.29 21.25 5.1C20.91 4.95 20.56 4.83 20.19 4.76C20.04 4.74 19.9 4.72 19.75 4.73L19.74 4.73ZM19.4 12.35L19.2 12.35L19.2 6.42L19.23 6.42C19.63 6.37 20.03 6.44 20.39 6.62C20.65 6.83 20.87 7.1 21.02 7.4C21.18 7.72 21.27 8.06 21.29 8.42C21.31 8.85 21.29 9.19 21.29 9.48C21.3 9.82 21.28 10.15 21.23 10.48C21.17 10.81 21.06 11.14 20.9 11.45C20.72 11.73 20.48 11.97 20.2 12.14C19.96 12.3 19.68 12.37 19.39 12.35L19.4 12.35Z" fill="#FFFFFF" fill-opacity="1.000000" fill-rule="nonzero"/>
	<path id="Vector" d="M29.23 4.76L24.52 4.76L24.52 14.06L26.51 14.06L26.51 10.37L29.03 10.37L29.03 8.65L26.51 8.65L26.51 6.49L29.23 6.49L29.23 4.76L29.23 4.76Z" fill="#FFFFFF" fill-opacity="1.000000" fill-rule="nonzero"/>
</svg>
